<?xml version="1.0" encoding="UTF-8"?>
<svg version="1.1" xmlns="http://www.w3.org/2000/svg" width="656" height="228">
<path d="M0 0 C216.48 0 432.96 0 656 0 C656 75.24 656 150.48 656 228 C439.52 228 223.04 228 0 228 C0 152.76 0 77.52 0 0 Z " fill="#FEFEFE" transform="translate(0,0)"/>
<path d="M0 0 C0.87298089 -0.00384115 1.74596179 -0.00768229 2.64539665 -0.01163983 C3.61026168 -0.01077335 4.57512671 -0.00990687 5.56923008 -0.00901413 C6.58971032 -0.01198525 7.61019056 -0.01495637 8.66159445 -0.01801753 C12.10327237 -0.0267342 15.54491563 -0.02821527 18.98660374 -0.02970505 C21.44505482 -0.03433106 23.90350518 -0.03935542 26.36195469 -0.04475021 C33.05604041 -0.05789559 39.75011248 -0.06435949 46.44420791 -0.06876087 C50.62160065 -0.07152135 54.79899108 -0.0757583 58.97638226 -0.08026505 C70.53579501 -0.09245817 82.09520589 -0.10275788 93.65462494 -0.10614014 C94.39470282 -0.1063597 95.13478071 -0.10657927 95.8972852 -0.10680549 C96.63915962 -0.10702377 97.38103404 -0.10724204 98.1453895 -0.10746694 C99.64877602 -0.10791041 101.15216253 -0.10835697 102.65554905 -0.10880661 C103.77415269 -0.10913875 103.77415269 -0.10913875 104.91535438 -0.10947761 C117.00563283 -0.11342771 129.09585108 -0.13088799 141.18610626 -0.15416613 C153.59033259 -0.17785664 165.99452869 -0.19034091 178.39877802 -0.19150805 C185.36685244 -0.19242604 192.33484841 -0.19820928 199.30290127 -0.21632767 C205.85358175 -0.23330049 212.40413923 -0.23499856 218.95484447 -0.22618866 C221.36436327 -0.22541451 223.77388987 -0.22981033 226.18338871 -0.23964691 C229.46232997 -0.25225208 232.740733 -0.24655209 236.01966953 -0.23606491 C236.98230384 -0.24412132 237.94493815 -0.25217772 238.9367432 -0.26047826 C240.25012616 -0.25059349 240.25012616 -0.25059349 241.59004211 -0.24050903 C242.34725947 -0.24110612 243.10447682 -0.24170321 243.88464016 -0.24231839 C246.41980893 0.23784625 247.30746689 1.1010292 248.85794163 3.13142776 C249.23546505 5.83759022 249.23546505 5.83759022 249.23889256 9.17331314 C249.24735203 10.43666992 249.2558115 11.7000267 249.26452732 13.00166702 C249.25869425 14.40437827 249.25254974 15.80708824 249.24612522 17.20979691 C249.25018961 18.68481205 249.25553074 20.15982416 249.2620554 21.63483047 C249.27574957 25.64299946 249.27042209 29.6509372 249.26091814 33.65911031 C249.25333381 37.84889944 249.2603636 42.03866851 249.26507664 46.2284584 C249.27053717 53.26394082 249.26333415 60.29932882 249.24905491 67.33479691 C249.23272145 75.47657426 249.23802069 83.61812633 249.25453413 91.75989825 C249.26813298 98.74339133 249.27007671 105.72681647 249.26221812 112.71031851 C249.25753357 116.8843416 249.25693821 121.05825867 249.26682758 125.23227501 C249.27547199 129.15491639 249.26952202 133.07726625 249.25214481 136.99987602 C249.24816666 138.44227234 249.24933663 139.88469305 249.25593281 141.32707977 C249.26408507 143.29021982 249.25206702 145.25341327 249.23889256 147.21652603 C249.23776148 148.31693757 249.2366304 149.41734911 249.23546505 150.55110645 C249.11088232 151.40261249 248.98629959 152.25411852 248.85794163 153.13142776 C245.77845753 155.18441716 245.17059531 155.38064396 241.70079136 155.3719368 C240.43248226 155.37606079 240.43248226 155.37606079 239.13855076 155.3802681 C238.21426273 155.37307755 237.28997471 155.36588699 236.33767796 155.35847855 C235.36188282 155.3587706 234.38608768 155.35906265 233.380723 155.35936356 C230.15038299 155.35796849 226.92027267 155.34239884 223.68997288 155.32674026 C221.45223714 155.32301077 219.21449977 155.3201635 216.97676182 155.31816483 C211.0830444 155.31052341 205.18942533 155.29087049 199.2957468 155.26875687 C193.28328882 155.24830943 187.27081497 155.23916546 181.25833225 155.22908401 C169.4581588 155.20762513 157.65805839 155.173483 145.85794163 155.13142776 C146.18794163 155.79142776 146.51794163 156.45142776 146.85794163 157.13142776 C147.06696019 158.81028956 147.22578234 160.49555564 147.35794163 162.18220901 C147.44044163 163.19090042 147.52294163 164.19959183 147.60794163 165.23884964 C147.69044163 166.29652542 147.77294163 167.3542012 147.85794163 168.44392776 C148.02195498 170.52356581 148.18853468 172.60300338 148.35794163 174.68220901 C148.43012913 175.60686966 148.50231663 176.5315303 148.57669163 177.48421097 C148.85257807 180.08094418 149.30427968 182.58083406 149.85794163 185.13142776 C152.82794163 186.12142776 155.79794163 187.11142776 158.85794163 188.13142776 C158.52794163 189.45142776 158.19794163 190.77142776 157.85794163 192.13142776 C133.10794163 192.13142776 108.35794163 192.13142776 82.85794163 192.13142776 C82.52794163 190.81142776 82.19794163 189.49142776 81.85794163 188.13142776 C82.49602757 187.92646683 83.1341135 187.72150589 83.79153538 187.51033401 C84.61782444 187.24091995 85.4441135 186.97150589 86.29544163 186.69392776 C87.11915257 186.42709183 87.9428635 186.16025589 88.79153538 185.88533401 C90.82013751 185.30987282 90.82013751 185.30987282 91.85794163 184.13142776 C92.15791686 181.99054989 92.3976636 179.84117663 92.61184788 177.69002151 C92.81004124 175.73225784 92.81004124 175.73225784 93.0122385 173.73494339 C93.14840117 172.34628082 93.28446762 170.95760882 93.42044163 169.56892776 C93.56001078 168.17630901 93.69997954 166.78373024 93.8403635 165.39119339 C94.18350149 161.97164585 94.52250572 158.55173803 94.85794163 155.13142776 C93.00418415 155.1380896 93.00418415 155.1380896 91.11297703 155.14488602 C79.48785626 155.18536292 67.86274972 155.21537883 56.23757458 155.23505211 C50.26041454 155.2455062 44.28331121 155.25969497 38.30618382 155.28230667 C32.54202177 155.30397718 26.77791441 155.31598413 21.01371479 155.32118225 C18.81040047 155.32488845 16.60708926 155.33212531 14.4037981 155.34288788 C11.32675971 155.35732583 8.24994964 155.35940894 5.17288303 155.35847855 C3.79508419 155.36926437 3.79508419 155.36926437 2.38945103 155.3802681 C1.55370045 155.37751877 0.71794987 155.37476944 -0.14312649 155.3719368 C-0.87134295 155.37378038 -1.5995594 155.37562397 -2.34984303 155.37752342 C-4.14205837 155.13142776 -4.14205837 155.13142776 -6.14205837 153.13142776 C-6.38815403 150.51149178 -6.38815403 150.51149178 -6.38256741 147.12041092 C-6.38531673 145.83871017 -6.38806606 144.55700943 -6.3908987 143.23646927 C-6.38381992 141.80806258 -6.3765503 140.37965683 -6.36910915 138.95125198 C-6.36854527 137.45343915 -6.36886116 135.95562577 -6.36999416 134.45781326 C-6.37056956 130.38363336 -6.3587852 126.30957048 -6.34484625 122.23541784 C-6.33236986 117.98063718 -6.33117084 113.72585403 -6.32879543 109.47105789 C-6.32257155 101.41042438 -6.30614848 93.34984491 -6.28609645 85.28923523 C-6.26376567 76.11403848 -6.25275113 66.93883919 -6.24270558 57.76362205 C-6.22178301 38.88619327 -6.18658944 20.00881486 -6.14205837 1.13142776 C-3.8434186 -0.01789212 -2.55617644 0.00420877 0 0 Z " fill="#DFDFDF" transform="translate(19.14205837249756,13.868572235107422)"/>
<path d="M0 0 C1.69505173 -0.0168132 1.69505173 -0.0168132 3.42434692 -0.03396606 C4.65465637 -0.02070282 5.88496582 -0.00743958 7.15255737 0.00622559 C8.45544708 0.00067657 9.75833679 -0.00487244 11.10070801 -0.0105896 C14.66689755 -0.024819 18.23231436 -0.00779699 21.79842997 0.01569557 C25.53128664 0.03581906 29.2641117 0.02992439 32.99700928 0.02758789 C39.26318088 0.02764143 45.52905063 0.04738376 51.7951355 0.07946777 C59.04173546 0.11639166 66.28794055 0.12513869 73.53462231 0.11817026 C80.50627868 0.11186853 87.47779953 0.12261129 94.44942856 0.14213562 C97.41668502 0.15031457 100.38387227 0.15301829 103.35113907 0.15144348 C107.49087782 0.15040257 111.63009405 0.17455536 115.76974487 0.20153809 C117.00410278 0.19860748 118.23846069 0.19567688 119.51022339 0.19265747 C121.19681564 0.20968216 121.19681564 0.20968216 122.91748047 0.22705078 C123.89638308 0.2307795 124.87528568 0.23450821 125.88385201 0.23834991 C128.76247209 0.68886922 129.62340916 1.30081085 131.33175659 3.62145996 C132.51003015 7.15628063 132.4666645 9.96000122 132.47892761 13.69268799 C132.4826043 14.41718462 132.48628099 15.14168126 132.49006909 15.88813233 C132.50110586 18.32236066 132.50494975 20.7565463 132.50875854 23.1907959 C132.51502319 24.93355444 132.52166999 26.67631164 132.52867126 28.41906738 C132.54971341 34.14798044 132.56007357 39.87689378 132.57003784 45.60583496 C132.57408529 47.5778632 132.57820221 49.5498913 132.58238792 51.52191925 C132.60143967 60.78624392 132.61567092 70.05056062 132.62399989 79.31490111 C132.63377365 90.00977028 132.66009688 100.70443255 132.70050079 111.39922881 C132.73065728 119.66514949 132.74546832 127.93101085 132.74878091 136.19698548 C132.75113187 141.13414069 132.76009847 146.07107487 132.78524208 151.00817108 C132.8085197 155.65393166 132.81275729 160.29932562 132.8024807 164.94512939 C132.80198516 166.64828969 132.80831105 168.351468 132.82203674 170.05457306 C132.83975849 172.38425242 132.83264928 174.7126164 132.81950378 177.04229736 C132.82189214 178.34458157 132.82428049 179.64686577 132.82674122 180.98861313 C132.21809574 185.45565243 130.77273705 187.87071834 128.33175659 191.62145996 C110.9294474 191.71487108 93.52721637 191.78542325 76.1247139 191.82870865 C68.04455437 191.84934037 59.96455056 191.87747246 51.88449097 191.92321777 C44.84250179 191.96306706 37.80062536 191.98888834 30.75852656 191.99781394 C27.0291859 192.00303199 23.30016783 192.01530847 19.57093048 192.04438019 C15.4093541 192.07655958 11.24833975 192.07742061 7.0866394 192.07556152 C5.22871262 192.09713318 5.22871262 192.09713318 3.33325195 192.11914062 C2.20025665 192.11364197 1.06726135 192.10814331 -0.10006714 192.10247803 C-1.08454205 192.1061652 -2.06901695 192.10985237 -3.08332443 192.11365128 C-6.39786513 191.48253357 -7.56133906 190.19588919 -9.66824341 187.62145996 C-11.16218605 184.63357469 -10.80805826 181.91529343 -10.82214355 178.58110046 C-10.82652581 177.84788002 -10.83090806 177.11465957 -10.83542311 176.35922033 C-10.84883295 173.88958347 -10.85499483 171.41998231 -10.8611145 168.95031738 C-10.86901369 167.18475685 -10.87728253 165.41919794 -10.88589478 163.65364075 C-10.91213408 157.84475247 -10.9274234 152.0358569 -10.94168091 146.22692871 C-10.94703963 144.22916471 -10.95241714 142.23140076 -10.95781326 140.23363686 C-10.97944397 131.92543125 -10.9981819 123.61722761 -11.00943565 115.30900097 C-11.02568277 103.39173793 -11.05887688 91.47480054 -11.1158365 79.55766028 C-11.15449914 71.18393798 -11.17406393 62.81030293 -11.17935622 54.43649369 C-11.18301447 49.43226322 -11.19508601 44.42837991 -11.22745895 39.42424583 C-11.25747526 34.7168933 -11.26387452 30.01009918 -11.2520752 25.30267143 C-11.25185393 23.57447481 -11.26020309 21.84625276 -11.27772903 20.11814499 C-11.3003533 17.75901108 -11.2921593 15.40191366 -11.27624512 13.04277039 C-11.2901272 12.35832814 -11.30400929 11.67388589 -11.31831205 10.96870297 C-11.25745505 7.30912844 -10.69564039 5.65815669 -8.48450851 2.69646931 C-5.29964464 0.34987833 -3.90299622 -0.00283867 0 0 Z " fill="#E1E1E1" transform="translate(510.6682434082031,14.3785400390625)"/>
<path d="M0 0 C1.11592624 -0.01169993 1.11592624 -0.01169993 2.25439644 -0.02363622 C4.74285794 -0.04355209 7.22978936 -0.0277946 9.71826172 -0.01205444 C11.50397636 -0.01883079 13.28968401 -0.02773402 15.07537842 -0.03860474 C19.92254513 -0.06140267 24.76917986 -0.0525597 29.6163559 -0.03670931 C34.6882623 -0.0240529 39.76012307 -0.0357897 44.83203125 -0.04364014 C53.34952983 -0.05273745 61.86681167 -0.04074662 70.38427734 -0.01693726 C80.23252037 0.01027414 90.08024585 0.00146004 99.92847633 -0.02606928 C108.38298282 -0.04875699 116.83733348 -0.05196208 125.29186058 -0.03887594 C130.34181578 -0.03107958 135.3915277 -0.03004495 140.44146729 -0.04655838 C145.18916304 -0.06099893 149.93619137 -0.05098905 154.683815 -0.0220871 C156.42649477 -0.01547406 158.16923067 -0.01737772 159.91188812 -0.02840042 C162.29065046 -0.04205976 164.66727263 -0.0249387 167.04589844 0 C167.73607622 -0.01115361 168.42625401 -0.02230722 169.13734627 -0.03379881 C172.8101597 0.04092829 174.48128532 0.60375689 177.45184422 2.82550144 C179.78078775 5.98467155 180.14575722 7.35080547 180.13768005 11.22050476 C180.1474437 12.33226578 180.15720734 13.44402679 180.16726685 14.58947754 C180.15243256 15.79951447 180.13759827 17.00955139 180.12231445 18.2562561 C180.12625717 19.53803238 180.13019989 20.81980865 180.13426208 22.14042664 C180.14422576 25.64886073 180.12308642 29.1564852 180.09578204 32.66480184 C180.07192667 36.33845389 180.0748968 40.01209057 180.07447815 43.68580627 C180.06985228 49.85363446 180.04622451 56.02115364 180.01000977 62.18887329 C179.96825897 69.31838762 179.95069371 76.44762384 179.94739002 83.5772534 C179.94378961 91.17083405 179.92491519 98.76431474 179.90026975 106.35785365 C179.89404349 108.54489034 179.89040571 110.73191942 179.88723564 112.91896248 C179.8802353 116.99375507 179.85584203 121.06826247 179.8293457 125.14297485 C179.82868103 126.35503601 179.82801636 127.56709717 179.82733154 128.81588745 C179.81236885 130.47929924 179.81236885 130.47929924 179.79710388 132.17631531 C179.79245337 133.13954743 179.78780287 134.10277956 179.78301144 135.09520054 C179.50778202 137.78303817 179.03947372 139.40446064 177.52294922 141.63491821 C174.03022219 142.79916056 170.9052532 142.77352078 167.27294922 142.76190186 C166.52929611 142.76346185 165.78564301 142.76502184 165.01945496 142.7666291 C162.52059972 142.77062668 160.02180494 142.76745424 157.52294922 142.76431274 C155.73429326 142.76566733 153.94563757 142.76744759 152.15698242 142.7696228 C147.29347045 142.77419025 142.42997964 142.77241039 137.56646729 142.76924372 C132.48295025 142.76671658 127.39943507 142.76905865 122.31591797 142.77062988 C113.77815423 142.77245054 105.24039914 142.77004798 96.70263672 142.76528931 C86.82389127 142.75984689 76.94516646 142.76160962 67.06642151 142.76711571 C58.59334638 142.77164979 50.12027748 142.77229594 41.64720154 142.76967704 C36.58283144 142.7681159 31.51847104 142.76791608 26.45410156 142.77121353 C21.6935428 142.7740965 16.93301071 142.77210866 12.17245483 142.76631927 C10.42247563 142.76499398 8.67249419 142.76538191 6.92251587 142.76758194 C4.5392964 142.77030243 2.15616315 142.76690122 -0.22705078 142.76190186 C-0.92441849 142.76413258 -1.62178619 142.7663633 -2.34028625 142.76866162 C-5.33946961 142.75640476 -7.60509427 142.59223705 -10.47705078 141.63491821 C-12.71293743 138.28108825 -12.73244164 137.17851481 -12.75120544 133.25860596 C-12.76118057 132.14262527 -12.7711557 131.02664459 -12.78143311 129.87684631 C-12.78243011 128.03933556 -12.78243011 128.03933556 -12.78344727 126.16470337 C-12.79177078 124.87507187 -12.8000943 123.58544037 -12.80867004 122.25672913 C-12.83062592 118.71741907 -12.83941537 115.17819541 -12.84449649 111.63882494 C-12.84813879 109.42746358 -12.85437819 107.2161249 -12.86149788 105.00477219 C-12.8859962 97.28968053 -12.89904508 89.57465615 -12.90258789 81.85952759 C-12.90622346 74.66859543 -12.93611894 67.47809002 -12.97799248 60.28728831 C-13.01268535 54.11308822 -13.02813615 47.93902963 -13.02883393 41.76473272 C-13.0296271 38.07728685 -13.03838339 34.3902756 -13.06683159 30.70293045 C-13.09785624 26.58962133 -13.08895762 22.47732906 -13.07641602 18.36392212 C-13.09125031 17.14296341 -13.10608459 15.9220047 -13.12136841 14.66404724 C-13.11160477 13.54242691 -13.10184113 12.42080658 -13.09178162 11.26519775 C-13.09379294 10.29291544 -13.09580427 9.32063313 -13.09787655 8.31888771 C-11.48036429 1.32601823 -6.45299902 -0.1042836 0 0 Z " fill="#E1E1E1" transform="translate(300.47705078125,63.365081787109375)"/>
<path d="M0 0 C75.9 0 151.8 0 230 0 C234.63920491 13.91761474 231 29.32954594 231 44 C155.1 44 79.2 44 1 44 C0.67 29.48 0.34 14.96 0 0 Z " fill="#54698D" transform="translate(23,109)"/>
<path d="M0 0 C76.23 0 152.46 0 231 0 C231 12.21 231 24.42 231 37 C154.77 37 78.54 37 0 37 C0 24.79 0 12.58 0 0 Z " fill="#576B8F" transform="translate(24,28)"/>
<path d="M0 0 C75.9 0 151.8 0 230 0 C230 12.21 230 24.42 230 37 C153.77 37 77.54 37 -1 37 C-0.67 24.79 -0.34 12.58 0 0 Z " fill="#54698D" transform="translate(24,68)"/>
<path d="M0 0 C39.6 0 79.2 0 120 0 C120 18.15 120 36.3 120 55 C80.4 55 40.8 55 0 55 C0 36.85 0 18.7 0 0 Z " fill="#566B8E" transform="translate(511,130)"/>
<path d="M0 0 C39.6 0 79.2 0 120 0 C120 16.5 120 33 120 50 C80.4 50 40.8 50 0 50 C0 33.5 0 17 0 0 Z " fill="#566B8E" transform="translate(511,77)"/>
<path d="M0 0 C48.84 0 97.68 0 148 0 C148 12.54 148 25.08 148 38 C99.16 38 50.32 38 0 38 C0 25.46 0 12.92 0 0 Z " fill="#576C8F" transform="translate(310,116)"/>
<path d="M0 0 C1.62466013 0.00138269 1.62466013 0.00138269 3.28214169 0.00279331 C5.13952465 0.00073132 5.13952465 0.00073132 7.0344305 -0.00137234 C8.41924214 0.00216727 9.80405354 0.00580209 11.18886471 0.00952244 C12.63726964 0.0098043 14.08567471 0.00964659 15.53407955 0.00907993 C19.47812183 0.00879193 23.42213397 0.01468903 27.36616921 0.02165389 C31.48349338 0.02788705 35.60081817 0.0284912 39.71814632 0.0296793 C47.52025732 0.03279273 55.32235437 0.04100627 63.12445921 0.05102879 C72.00460173 0.06218957 80.88474491 0.06770029 89.7648927 0.07272422 C108.03700422 0.08318887 126.30909661 0.10153449 144.58119869 0.12304783 C144.58119869 12.33304783 144.58119869 24.54304783 144.58119869 37.12304783 C95.74119869 37.12304783 46.90119869 37.12304783 -3.41880131 37.12304783 C-3.41880131 0.17391924 -3.41880131 0.17391924 0 0 Z " fill="#586C8F" transform="translate(313.4188013076782,75.87695217132568)"/>
<path d="M0 0 C48.18 0 96.36 0 146 0 C146 12.21 146 24.42 146 37 C97.82 37 49.64 37 0 37 C0 24.79 0 12.58 0 0 Z " fill="#556A8E" transform="translate(311,157)"/>
<path d="M0 0 C39.6 0 79.2 0 120 0 C120 12.21 120 24.42 120 37 C80.4 37 40.8 37 0 37 C0 24.79 0 12.58 0 0 Z " fill="#586C8F" transform="translate(511,37)"/>
<path d="M0 0 C78.87 0 157.74 0 239 0 C239 43.23 239 86.46 239 131 C160.13 131 81.26 131 0 131 C0 87.77 0 44.54 0 0 Z M4 3 C4 15.21 4 27.42 4 40 C80.23 40 156.46 40 235 40 C235 27.79 235 15.58 235 3 C158.77 3 82.54 3 4 3 Z M4 43 C3.67 55.21 3.34 67.42 3 80 C79.23 80 155.46 80 234 80 C234 67.79 234 55.58 234 43 C158.1 43 82.2 43 4 43 Z M3 84 C3.33 98.52 3.66 113.04 4 128 C79.9 128 155.8 128 234 128 C235.81960246 105.62358034 235.81960246 105.62358034 233 84 C157.1 84 81.2 84 3 84 Z " fill="#E9EBEF" transform="translate(20,25)"/>
<path d="M0 0 C50.82 0 101.64 0 154 0 C154 40.92 154 81.84 154 124 C103.18 124 52.36 124 0 124 C0 83.08 0 42.16 0 0 Z M3 4 C3 15.88 3 27.76 3 40 C51.84 40 100.68 40 151 40 C151 27.79 151 15.58 151 3 C131.85085047 2.97745404 112.70171164 2.95902145 93.55255222 2.94818783 C84.66190174 2.9430246 75.77126006 2.9359814 66.88061523 2.92456055 C59.13438773 2.91461452 51.38816661 2.90814677 43.6419329 2.90591151 C39.53779081 2.90460426 35.43366698 2.90151753 31.32953072 2.89426994 C27.4710536 2.88751101 23.61260235 2.88538278 19.75411987 2.88689232 C18.3338755 2.88661593 16.91363031 2.88461005 15.49339104 2.88079453 C13.5625813 2.87585933 11.63175785 2.87760197 9.70094299 2.87974548 C8.07628286 2.87836279 8.07628286 2.87836279 6.41880131 2.87695217 C4.05002922 2.72654794 4.05002922 2.72654794 3 4 Z M3 43 C3 55.54 3 68.08 3 81 C51.84 81 100.68 81 151 81 C151 68.46 151 55.92 151 43 C102.16 43 53.32 43 3 43 Z M4 84 C4 96.21 4 108.42 4 121 C52.18 121 100.36 121 150 121 C150 108.79 150 96.58 150 84 C101.82 84 53.64 84 4 84 Z " fill="#F0F1F3" transform="translate(307,73)"/>
<path d="M0 0 C41.91 0 83.82 0 127 0 C127.04030303 38.32818554 127.04030303 38.32818554 127.04882812 54.33789062 C127.05477146 65.41056784 127.06177408 76.48323747 127.07543945 87.5559082 C127.08538529 95.61856198 127.09185319 103.68120963 127.09408849 111.74386936 C127.09539577 116.01568521 127.0984827 120.28748351 127.10573006 124.55929375 C127.11248869 128.57535956 127.11461728 132.59140051 127.11310768 136.60747147 C127.11338408 138.08576785 127.11539013 139.56406501 127.11920547 141.04235649 C127.12414021 143.05198957 127.12239814 145.06163581 127.12025452 147.0712738 C127.12117631 148.19862662 127.1220981 149.32597944 127.12304783 150.48749447 C127 153 127 153 126 154 C124.38275615 154.09820173 122.76121367 154.12631935 121.14099121 154.12698364 C120.08929245 154.12980347 119.03759369 154.13262329 117.95402527 154.13552856 C116.79034927 154.13350433 115.62667328 154.1314801 114.42773438 154.12939453 C113.20999832 154.13114685 111.99226227 154.13289917 110.73762512 154.13470459 C107.38852884 154.13836281 104.03949398 154.13748966 100.69040108 154.1343255 C97.19281046 154.13180154 93.69522255 154.13413954 90.19763184 154.13571167 C84.32299323 154.13753326 78.44836717 154.13512734 72.57373047 154.13037109 C65.77260949 154.12492849 58.97151849 154.12669116 52.17039824 154.1321975 C46.34110872 154.13672893 40.51182826 154.13737903 34.68253756 154.13475883 C31.19657175 154.13319622 27.71062006 154.13300185 24.22465515 154.13629532 C20.34051337 154.13970835 16.45640542 154.1349838 12.57226562 154.12939453 C10.82675163 154.13243088 10.82675163 154.13243088 9.04597473 154.13552856 C7.46842659 154.13129883 7.46842659 154.13129883 5.85900879 154.12698364 C4.93943642 154.12660662 4.01986404 154.12622959 3.07242584 154.12584114 C1 154 1 154 0 153 C-0.0966888 151.02571766 -0.12187075 149.04792169 -0.12025452 147.0712738 C-0.12162918 145.78253357 -0.12300385 144.49379333 -0.12442017 143.16600037 C-0.12088055 141.72451759 -0.11724573 140.28303505 -0.11352539 138.84155273 C-0.11324353 137.33403526 -0.11340123 135.82651764 -0.1139679 134.31900024 C-0.11425591 130.21380656 -0.10835861 126.10864185 -0.10139394 122.00345492 C-0.09516099 117.7179674 -0.09455665 113.43247928 -0.09336853 109.14698792 C-0.09025504 101.02613348 -0.08204141 92.90529244 -0.07201904 84.78444391 C-0.05877337 73.81474215 -0.05335814 62.84503675 -0.04751682 51.87532902 C-0.03810153 34.58354264 -0.01818274 17.29178453 0 0 Z M3 3 C3 15.21 3 27.42 3 40 C42.6 40 82.2 40 123 40 C123 27.79 123 15.58 123 3 C83.4 3 43.8 3 3 3 Z M3 43 C3 59.5 3 76 3 93 C42.6 93 82.2 93 123 93 C123 76.5 123 60 123 43 C83.4 43 43.8 43 3 43 Z M3 96 C3 114.15 3 132.3 3 151 C42.6 151 82.2 151 123 151 C123 132.85 123 114.7 123 96 C83.4 96 43.8 96 3 96 Z " fill="#EDEFF2" transform="translate(508,34)"/>
<path d="M0 0 C0.33 0 0.66 0 1 0 C1.02358861 10.0869919 1.04114419 20.17397683 1.05181217 30.2609911 C1.05694255 34.94915073 1.06385089 39.63729098 1.07543945 44.32543945 C1.12174151 63.60165826 1.0859334 82.86647778 0.55859375 102.13671875 C0.53906206 102.89655375 0.51953037 103.65638874 0.49940681 104.43924904 C0.44354181 106.54785894 0.3804823 108.65609881 0.31420898 110.7644043 C0.25981911 112.54369576 0.25981911 112.54369576 0.20433044 114.3589325 C0 117 0 117 -1 118 C-4.01350238 118.09529612 -7.00404106 118.12551904 -10.01782227 118.11352539 C-10.96406464 118.11367142 -11.91030701 118.11381744 -12.88522339 118.1139679 C-16.02897392 118.11326836 -19.17266601 118.10547409 -22.31640625 118.09765625 C-24.48974068 118.09579221 -26.66307552 118.09436824 -28.83641052 118.09336853 C-34.56901195 118.08954221 -40.30158823 118.07971097 -46.03417969 118.06866455 C-51.87890279 118.05845287 -57.72362993 118.05387143 -63.56835938 118.04882812 C-75.045584 118.0380888 -86.52278991 118.02101102 -98 118 C-98 117.67 -98 117.34 -98 117 C-66.32 117 -34.64 117 -2 117 C-2 104.79 -2 92.58 -2 80 C-50.18 80 -98.36 80 -148 80 C-148 92.21 -148 104.42 -148 117 C-132.82 117 -117.64 117 -102 117 C-102 117.33 -102 117.66 -102 118 C-117.51 118 -133.02 118 -149 118 C-149.020625 111.60625 -149.04125 105.2125 -149.0625 98.625 C-149.071604 96.60713379 -149.08070801 94.58926758 -149.09008789 92.51025391 C-149.09300776 90.91569078 -149.09555615 89.32112691 -149.09765625 87.7265625 C-149.10277222 86.89471436 -149.10788818 86.06286621 -149.11315918 85.20581055 C-149.1140718 79.2281436 -149.1140718 79.2281436 -148 77 C-99.49 77 -50.98 77 -1 77 C-1 64.46 -1 51.92 -1 39 C-49.84 39 -98.68 39 -149 39 C-148.67 38.01 -148.34 37.02 -148 36 C-99.49 35.67 -50.98 35.34 -1 35 C-0.67 23.45 -0.34 11.9 0 0 Z " fill="#DBE0E7" transform="translate(459,77)"/>
<path d="M0 0 C76.23 0 152.46 0 231 0 C230.67 1.32 230.34 2.64 230 4 C154.1 4 78.2 4 0 4 C0 2.68 0 1.36 0 0 Z " fill="#CBD2DC" transform="translate(23,105)"/>
<path d="M0 0 C0.33 0 0.66 0 1 0 C1.02505615 1.04978027 1.0501123 2.09956055 1.07592773 3.18115234 C1.16996267 7.06881324 1.2701928 10.95629381 1.37231445 14.84375 C1.41567817 16.52762642 1.4573522 18.21154723 1.49731445 19.89550781 C1.55498234 22.31328724 1.6186865 24.73084295 1.68359375 27.1484375 C1.70030624 27.9036972 1.71701874 28.65895691 1.73423767 29.43710327 C1.77555107 33.34739799 1.77555107 33.34739799 3 37 C26.265 37.495 26.265 37.495 50 38 C50 38.33 50 38.66 50 39 C34.16 39 18.32 39 2 39 C2.33 51.87 2.66 64.74 3 78 C26.265 78.495 26.265 78.495 50 79 C50 79.33 50 79.66 50 80 C34.16 80 18.32 80 2 80 C2 92.87 2 105.74 2 119 C11.6215625 118.7525 11.6215625 118.7525 21.4375 118.5 C49.1854906 117.88029617 76.9339887 117.91606665 104.6875 117.9375 C106.361877 117.93878403 106.361877 117.93878403 108.0700798 117.94009399 C122.0467376 117.95159808 136.02336488 117.97260062 150 118 C150.33 106.45 150.66 94.9 151 83 C151.33 83 151.66 83 152 83 C152 95.54 152 108.08 152 121 C101.84 121 51.68 121 0 121 C0 81.07 0 41.14 0 0 Z " fill="#FDFDFD" transform="translate(308,76)"/>
<path d="M0 0 C0.495 0.99 0.495 0.99 1 2 C2.09874199 1.99333817 2.09874199 1.99333817 3.21968079 1.98654175 C10.12059678 1.94647828 17.0214954 1.91602233 23.92249775 1.89637566 C27.47043631 1.88593556 31.01827883 1.87177237 34.56616211 1.84912109 C38.64437791 1.82324669 42.72249271 1.8135291 46.80078125 1.8046875 C48.07585037 1.79436493 49.35091949 1.78404236 50.66462708 1.77340698 C51.84562485 1.77325592 53.02662262 1.77310486 54.2434082 1.77294922 C55.28487503 1.768508 56.32634186 1.76406677 57.39936829 1.75949097 C60 2 60 2 63 4 C21.75 4 -19.5 4 -62 4 C-58.59710333 1.73140222 -57.34955543 1.73740042 -53.35107422 1.69702148 C-52.19332489 1.68037949 -51.03557556 1.66373749 -49.84274292 1.64659119 C-48.59268463 1.63817703 -47.34262634 1.62976288 -46.0546875 1.62109375 C-44.09835746 1.59513498 -42.14202746 1.56917142 -40.18570137 1.5429163 C-37.4457504 1.50850869 -34.70574411 1.48293332 -31.96569824 1.45739746 C-27.16201903 1.41168019 -22.35845842 1.35661309 -17.55496216 1.29469299 C-14.99649086 1.26260759 -12.43794787 1.2357583 -9.87936401 1.21446228 C-8.72791901 1.20097244 -7.576474 1.1874826 -6.39013672 1.17358398 C-5.37104218 1.16407211 -4.35194763 1.15456024 -3.30197144 1.14476013 C-1.03658823 1.25703284 -1.03658823 1.25703284 0 0 Z " fill="#F9F9F9" transform="translate(571,184)"/>
<path d="M0 0 C1.98 0 3.96 0 6 0 C6.042721 1.66611905 6.04063832 3.33382885 6 5 C5.67 5.33 5.34 5.66 5 6 C5.66 6.33 6.32 6.66 7 7 C7 7.66 7 8.32 7 9 C4.69 9 2.38 9 0 9 C0 8.01 0 7.02 0 6 C0.99 5.34 1.98 4.68 3 4 C2.67 3.34 2.34 2.68 2 2 C1.34 2 0.68 2 0 2 C0 1.34 0 0.68 0 0 Z " fill="#C6CDD9" transform="translate(381,132)"/>
<path d="M0 0 C1.98 0 3.96 0 6 0 C6.042721 1.66611905 6.04063832 3.33382885 6 5 C5.67 5.33 5.34 5.66 5 6 C5.66 6.33 6.32 6.66 7 7 C7 7.66 7 8.32 7 9 C4.69 9 2.38 9 0 9 C0 8.01 0 7.02 0 6 C0.99 5.34 1.98 4.68 3 4 C2.67 3.34 2.34 2.68 2 2 C1.34 2 0.68 2 0 2 C0 1.34 0 0.68 0 0 Z " fill="#C6CDD9" transform="translate(569,98)"/>
<path d="M0 0 C1.98 0 3.96 0 6 0 C6.042721 1.66611905 6.04063832 3.33382885 6 5 C5.67 5.33 5.34 5.66 5 6 C5.66 6.33 6.32 6.66 7 7 C7 7.66 7 8.32 7 9 C4.69 9 2.38 9 0 9 C0 8.01 0 7.02 0 6 C0.99 5.34 1.98 4.68 3 4 C2.67 3.34 2.34 2.68 2 2 C1.34 2 0.68 2 0 2 C0 1.34 0 0.68 0 0 Z " fill="#C6CDD9" transform="translate(136,82)"/>
<path d="M0 0 C1.66611905 -0.042721 3.33382885 -0.04063832 5 0 C6 1 6 1 6.09765625 2.84765625 C6.06510417 4.8984375 6.03255208 6.94921875 6 9 C4.02 9 2.04 9 0 9 C0 8.01 0 7.02 0 6 C1.32 6.33 2.64 6.66 4 7 C4 6.34 4 5.68 4 5 C3.34 4.67 2.68 4.34 2 4 C2.66 3.01 3.32 2.02 4 1 C2.68 1.33 1.36 1.66 0 2 C0 1.34 0 0.68 0 0 Z " fill="#CAD1DC" transform="translate(380,169)"/>
<path d="M0 0 C1.66611905 -0.042721 3.33382885 -0.04063832 5 0 C6 1 6 1 6.09765625 2.84765625 C6.06510417 4.8984375 6.03255208 6.94921875 6 9 C4.02 9 2.04 9 0 9 C0 8.01 0 7.02 0 6 C1.32 6.33 2.64 6.66 4 7 C4 6.34 4 5.68 4 5 C3.34 4.67 2.68 4.34 2 4 C2.66 3.01 3.32 2.02 4 1 C2.68 1.33 1.36 1.66 0 2 C0 1.34 0 0.68 0 0 Z " fill="#CAD1DC" transform="translate(568,151)"/>
<path d="M0 0 C1.66611905 -0.042721 3.33382885 -0.04063832 5 0 C6 1 6 1 6.09765625 2.84765625 C6.06510417 4.8984375 6.03255208 6.94921875 6 9 C4.02 9 2.04 9 0 9 C0 8.01 0 7.02 0 6 C1.32 6.33 2.64 6.66 4 7 C4 6.34 4 5.68 4 5 C3.34 4.67 2.68 4.34 2 4 C2.66 3.01 3.32 2.02 4 1 C2.68 1.33 1.36 1.66 0 2 C0 1.34 0 0.68 0 0 Z " fill="#CAD1DC" transform="translate(136,126)"/>
<path d="M0 0 C1.32 0 2.64 0 4 0 C4.33 2.97 4.66 5.94 5 9 C3.02 9 1.04 9 -1 9 C-0.34 8.67 0.32 8.34 1 8 C1 6.35 1 4.7 1 3 C0.34 3 -0.32 3 -1 3 C-0.67 2.01 -0.34 1.02 0 0 Z " fill="#C4CBD7" transform="translate(382,90)"/>
<path d="M0 0 C1.32 0 2.64 0 4 0 C4.33 2.64 4.66 5.28 5 8 C3.02 8 1.04 8 -1 8 C-0.34 7.67 0.32 7.34 1 7 C1 5.35 1 3.7 1 2 C0.34 1.67 -0.32 1.34 -1 1 C-0.67 0.67 -0.34 0.34 0 0 Z " fill="#CCD2DC" transform="translate(569,52)"/>
<path d="M0 0 C0 2.31 0 4.62 0 7 C0.66 7.33 1.32 7.66 2 8 C0.02 8 -1.96 8 -4 8 C-3.34 7.67 -2.68 7.34 -2 7 C-2 5.35 -2 3.7 -2 2 C-2.99 1.67 -3.98 1.34 -5 1 C-3 0 -3 0 0 0 Z " fill="#D6DBE3" transform="translate(141,42)"/>
</svg>